
        <svg xmlns="http://www.w3.org/2000/svg" xmlns:xlink="http://www.w3.org/1999/xlink" version="1.1" width="3181.8181818181824" 
        height="1309.0909090909092" viewBox="0 0 3181.8181818181824 1309.0909090909092">
			<rect fill="#001573" width="3181.8181818181824" height="1309.0909090909092"/>
			<g transform="scale(9.090909090909092) translate(10, 10)">
				<defs id="SvgjsDefs1556"><linearGradient id="SvgjsLinearGradient1563"><stop id="SvgjsStop1564" stop-color="#8f5e25" offset="0"></stop><stop id="SvgjsStop1565" stop-color="#fbf4a1" offset="0.5"></stop><stop id="SvgjsStop1566" stop-color="#8f5e25" offset="1"></stop></linearGradient><linearGradient id="SvgjsLinearGradient1567"><stop id="SvgjsStop1568" stop-color="#8f5e25" offset="0"></stop><stop id="SvgjsStop1569" stop-color="#fbf4a1" offset="0.5"></stop><stop id="SvgjsStop1570" stop-color="#8f5e25" offset="1"></stop></linearGradient></defs><g id="SvgjsG1557" featureKey="symbolContainer" transform="matrix(1,0,0,1,0,0)" fill="url(#SvgjsLinearGradient1563)"><rect width="110" height="124" rx="8"></rect></g><g id="SvgjsG1558" featureKey="monogramFeature-0" transform="matrix(2.1328458455482298,0,0,2.1328458455482298,19.999998093087214,-19.506358758682154)" fill="#25477e"><path d="M14.34 24.9 l-0.36 6.18 c-0.18 2.7 3.84 2.94 4.02 0.3 l0.36 -6.18 c0.18 -2.64 -3.78 -2.88 -4.02 -0.3 z M0.72 16.560000000000002 l0 0 c0 -0.06 30.72 -0.48 30.84 -0.36 c0.96 0.84 1.26 10.74 1.26 20.82 c-2.88 2.52 -8.4 2.7 -12.3 2.52 c-1.62 -0.12 -6.6 -1.68 -6.66 1.44 c-0.36 7.62 2.34 14.1 7.5 18.96 c-8.88 0.24 -20.34 0 -20.82 -0.9 c-1.2 -2.16 -0.06 -42.42 0.18 -42.48 z"></path></g><g id="SvgjsG1559" featureKey="nameFeature-0" transform="matrix(1.4667057722557484,0,0,1.4667057722557484,126.47990670609005,19.39688830814876)" fill="url(#SvgjsLinearGradient1567)"><path d="M12.2 12 c6.28 0 10.36 3.8 10.36 9.52 c0 5.64 -4.08 9.16 -10.36 9.16 l-3.96 0 l0 9.32 l-5.84 0 l0 -28 l9.8 0 z M11.84 25.64 c2.88 0 4.88 -1.12 4.88 -4.12 c0 -2.96 -2 -4.16 -4.88 -4.16 l-3.6 0 l0 8.28 l3.6 0 z M41.400000000000006 19.2 l5.72 0 l0 20.8 l-5.72 0 l0 -2.56 c-0.12 0.84 -2.16 2.96 -5.76 2.96 c-4.76 0 -10.28 -3.44 -10.28 -10.84 c0 -7.16 5.52 -10.72 10.28 -10.72 c3.6 0 5.64 2.24 5.76 2.68 l0 -2.32 z M36.44 35.32 c2.8 0 5.24 -1.92 5.24 -5.76 c0 -3.72 -2.44 -5.64 -5.24 -5.64 c-2.88 0 -5.52 1.96 -5.52 5.64 c0 3.8 2.64 5.76 5.52 5.76 z M68.12 19.12 l5.72 0 l-12.72 28.48 l-5.72 0 l3.8 -8.32 l-9 -20.16 l5.72 0 l6.08 14 z M91.16 11.600000000000001 c7.8 0 14.52 5.88 14.52 14.4 s-6.72 14.4 -14.52 14.4 s-14.52 -5.88 -14.52 -14.4 s6.72 -14.4 14.52 -14.4 z M91.16 34.92 c4.72 0 8.44 -3.72 8.44 -8.92 s-3.72 -8.92 -8.44 -8.92 s-8.44 3.72 -8.44 8.92 s3.72 8.92 8.44 8.92 z M118.84 16.04 c-1.88 0 -2.08 1.56 -2.08 2.36 l0 0.8 l4.64 0 l0 4.72 l-4.64 0 l0 16.08 l-5.72 0 l0 -16.08 l-2.76 0 l0 -4.72 l2.76 0 l0 -0.8 c0 -6.24 4.56 -7.08 7.12 -7.08 c1.96 0 3.84 0.44 5.28 1.36 l-1.96 3.96 c-1.12 -0.44 -1.64 -0.6 -2.64 -0.6 z M136 35.2 c1.08 0 1.88 -0.12 2.76 -0.44 l0 4.8 c-0.88 0.4 -2.24 0.68 -4.24 0.68 c-3.24 0 -5.96 -1.12 -5.96 -7 l0 -9.32 l-2.92 0 l0 -4.72 l2.92 0 l0 -4.88 l5.72 0 l0 4.88 l4.44 0 l0 4.72 l-4.44 0 l0 9.28 c0 0.96 0.28 2 1.72 2 z"></path></g>
			</g>
		</svg>
	